<?xml version="1.0" encoding="utf-8"?>
<!-- Generator: Adobe Illustrator 19.0.0, SVG Export Plug-In . SVG Version: 6.00 Build 0)  -->
<svg version="1.1" id="layer" xmlns="http://www.w3.org/2000/svg" xmlns:xlink="http://www.w3.org/1999/xlink" x="0px" y="0px"
	 viewBox="-153 -46 652 652" style="enable-background:new -153 -46 652 652;" xml:space="preserve">
<style type="text/css">
	.st0{fill:#2CC5B8;}
</style>
<path class="st0" d="M154,187.5c-20.1,0-32.3,15.5-32.3,34.3c0,18.8,12.2,34.3,32.3,34.3c19.2,0,32.3-14.7,32.3-34.3
	C186.3,202.3,173.2,187.5,154,187.5L154,187.5z M390.8,278.1c-33.1,0-57.5-24.2-57.5-56.3s24.5-56.3,57.5-56.3
	c33.1,0,57.6,24.2,57.6,56.3S423.9,278.1,390.8,278.1z M290.4,275.3h-27.7l-43-107h25.5l31.6,82.7l31.6-82.7h24.8L290.4,275.3
	L290.4,275.3z M208.2,275.3h-23.3v-12.8c-7.5,9.5-18.3,15.6-33.6,15.6c-29.9,0-53.5-23.6-53.5-56.3c0-32.7,23.6-56.3,53.5-56.3
	c15.3,0,26.1,6.3,33.6,15.7v-13h23.3V275.3L208.2,275.3z M91.8,191.7c-4.9-2.6-12.1-3.9-17.8-3.9c-14.9,0-25.5,10.4-25.5,28.7v58.8
	H25.2v-107h23.1v12.1c7.2-10.3,18-14.8,31.1-14.8c7.2,0,12.6,0.9,18,3L91.8,191.7L91.8,191.7z M-44.3,278.1
	c-15.3,0-26-6.1-33.5-15.5v12.7h-23.3V136.6l23.3-22.1v66.5c7.5-9.4,18.2-15.5,33.5-15.5c29.9,0,53.5,23.6,53.5,56.3
	C9.2,254.5-14.4,278.1-44.3,278.1L-44.3,278.1z M-160.6,25v500l137-129.5h520.1V25H-160.6z M-47.1,187.5
	c-19.2,0-32.3,14.7-32.3,34.3s13.1,34.3,32.3,34.3c20.1,0,32.3-15.5,32.3-34.3C-14.9,203-27,187.5-47.1,187.5L-47.1,187.5z
	 M390.8,187.5c-19.1,0-33.5,14.1-33.5,34.3c0,20.2,14.4,34.3,33.5,34.3c19.1,0,33.6-14.1,33.6-34.3
	C424.4,201.6,409.9,187.5,390.8,187.5L390.8,187.5z"/>
</svg>
